<?xml version="1.0"?>
<svg xmlns="http://www.w3.org/2000/svg" xmlns:xlink="http://www.w3.org/1999/xlink" xmlns:svgjs="http://svgjs.com/svgjs" version="1.1" width="512" height="512" x="0" y="0" viewBox="0 0 31.663 31.664" style="enable-background:new 0 0 512 512" xml:space="preserve" class=""><g>
<g xmlns="http://www.w3.org/2000/svg">
	<g>
		<path d="M24.783,15.966c-3.801,0-6.879,3.08-6.879,6.88c0,3.799,3.078,6.88,6.879,6.88c3.8,0,6.88-3.081,6.88-6.88    C31.663,19.046,28.583,15.966,24.783,15.966z M28.072,23.869h-6.578v-2.041h6.578V23.869z" fill="#901c1c" data-original="#000000" class=""/>
		<path d="M24.783,14.947c1.709,0,3.287,0.551,4.582,1.477c0.816-1.653,1.32-3.445,1.32-5.358c0-5.041-3.586-9.128-8.011-9.128    c-3.278,0-6.093,2.247-7.332,5.46c-1.24-3.213-4.055-5.46-7.333-5.46C3.586,1.937,0,6.024,0,11.065    C0,21.63,15.471,28.51,15.471,28.51s1.084-0.492,2.668-1.406c-0.791-1.231-1.255-2.688-1.255-4.257    C16.885,18.49,20.429,14.947,24.783,14.947z" fill="#901c1c" data-original="#000000" class=""/>
	</g>
</g>
<g xmlns="http://www.w3.org/2000/svg">
</g>
<g xmlns="http://www.w3.org/2000/svg">
</g>
<g xmlns="http://www.w3.org/2000/svg">
</g>
<g xmlns="http://www.w3.org/2000/svg">
</g>
<g xmlns="http://www.w3.org/2000/svg">
</g>
<g xmlns="http://www.w3.org/2000/svg">
</g>
<g xmlns="http://www.w3.org/2000/svg">
</g>
<g xmlns="http://www.w3.org/2000/svg">
</g>
<g xmlns="http://www.w3.org/2000/svg">
</g>
<g xmlns="http://www.w3.org/2000/svg">
</g>
<g xmlns="http://www.w3.org/2000/svg">
</g>
<g xmlns="http://www.w3.org/2000/svg">
</g>
<g xmlns="http://www.w3.org/2000/svg">
</g>
<g xmlns="http://www.w3.org/2000/svg">
</g>
<g xmlns="http://www.w3.org/2000/svg">
</g>
</g></svg>
